<svg width="31" height="29" viewBox="0 0 31 29" fill="none" xmlns="http://www.w3.org/2000/svg">
<path d="M31 29H0C0.883461 24.3359 5.45566 22.9912 8.29678 22.1849C11.4527 21.2897 13.0561 17.8574 11.7116 16.1664C10.3663 14.4753 10.0558 12.7342 10.0558 12.7342C9.59042 12.5352 8.95723 12.2861 8.69907 10.7439C8.4402 9.20245 9.38318 8.67966 9.38318 8.67966C9.38318 8.67966 9.17666 4.72613 10.6245 2.53771C12.073 0.348532 14.1684 0 15.5 0C16.8316 0 18.9263 0.348532 20.3748 2.53771C21.8233 4.72613 21.6161 8.67966 21.6161 8.67966C21.6161 8.67966 22.5598 9.20245 22.3009 10.7439C22.0421 12.2861 21.4096 12.5352 20.9435 12.7342C20.9435 12.7342 20.633 14.4753 19.2884 16.1664C17.9431 17.8574 19.5473 21.2897 22.7032 22.1849C25.5443 22.9912 30.1165 24.3359 31 29Z" fill="#BBBBBB"/>
</svg>
